<svg version="1.0" xmlns="http://www.w3.org/2000/svg" width="876" height="876" viewBox="0 0 657 657"><path d="M0 328v200h657V128H0v200zm331.1-92.6c-1.2 1.3-9.6 8.9-18.6 16.7l-16.4 14.4-.1 42.7V352h-51.2c-28.1 0-50.9-.2-50.7-.4.4-.4 18.1-1.2 49.4-2.2 10.5-.4 25.3-.9 33-1.3l14-.6.2-40.4c.1-35.5.4-40.6 1.8-42 .8-.9 10.2-8.6 20.8-17.2 17.9-14.5 23.2-18.2 17.8-12.5zm19.8-.6c-1.3.9-8 5.6-14.9 10.4-6.9 4.8-17.1 11.9-22.7 15.8l-10.3 7.2V352h-2.5c-1.7 0-2.5-.6-2.5-1.8-.4-20.8.2-83.8.7-84.3 2-1.9 53.7-33.8 54.2-33.4.3.3-.6 1.3-2 2.3zM368 290v58l7.8.1c4.2.1 9.5.2 11.7.4 2.2.2 19.3.9 38 1.5 18.7.7 34.2 1.4 34.4 1.6.2.2-21.5.4-48.2.4H363v-55.6c0-48.1-.2-55.5-1.4-55.1-2.1.8-49.8 27.7-51.4 29-1 .8-1.3 9.1-1.2 38.6 0 20.7.1 38.8 0 40.3 0 2.3-.4 2.8-2.5 2.8H304v-83.5l31.3-18.2c17.1-9.9 31.5-18.2 32-18.2.4-.1.7 26 .7 57.9zM228.8 390.4c4.7 4.6 4.5 14.2-.3 18.3-3.5 3.1-6.9 3.8-11.5 2.4-9.7-2.9-10.4-17.6-1-22.4 4.3-2.2 9.5-1.5 12.8 1.7zm147.6-2c4.8 2 6.6 5.1 6.6 11.4 0 4.6-.4 5.8-2.8 8.2-3.8 3.7-8.9 4.7-13.5 2.5-8.9-4.2-8.4-18.1.6-22 4.1-1.8 5-1.8 9.1-.1zm106.9 2.7c2.6 2.9 3 4.3 2.9 10.3-.2 9.6-13 13.9-19.4 6.6-2.8-3-3.2-4.7-2.9-10.5.5-9.5 12.7-13.6 19.4-6.4zm-294.4-.5c1.2 1.5 2.1 3.8 2.1 5.1 0 3.6-4.2 7.3-8.5 7.3-3.4 0-3.5.1-3.5 4 0 3.6-.2 4-2.5 4H174v-23h6.4c5.8 0 6.7.3 8.5 2.6zm79.1-.6c2.6 2.6 2.5 5.1-.1 8.3l-2 2.7 3 4.4c1.7 2.5 3.1 4.7 3.1 5 0 .3-1.3.6-2.8.6-2.2 0-3.5-1-6-4.5-1.8-2.6-3.7-4.3-4.2-4-.6.3-1 2.4-1 4.6 0 3.5-.3 3.9-2.5 3.9H253v-23h6.5c5.2 0 6.9.4 8.5 2zm40 0c0 1.6-.7 2-3.5 2H301v9.5c0 9.5 0 9.5-2.5 9.5s-2.5 0-2.5-9.5V392h-3.5c-2.8 0-3.5-.4-3.5-2 0-1.9.7-2 9.5-2s9.5.1 9.5 2zm33-1.6c0 .2.3 1.1.6 2 .5 1.3-.2 1.6-4 1.6-4.4 0-4.6.1-4.6 3 0 2.8.2 3 4 3 3.3 0 4 .3 4 2s-.7 2-4 2h-4v4.6c0 4.3-.1 4.5-2.6 4.2l-2.6-.3.1-10.8c0-5.9 0-10.9.1-11.2 0-.6 13-.7 13-.1zm68 9.1v9.5h4.5c3.8 0 4.5.3 4.5 2 0 1.8-.7 2-7 2h-7v-23h2.5c2.5 0 2.5 0 2.5 9.5zm34 2V411h-5v-23h5v11.5z"/><path d="M217 394c-5.3 5.3.7 16.1 6.7 12.2 1.8-1.2 3.4-6.2 2.7-8.6-1.7-5.5-5.9-7.1-9.4-3.6zm151.8-.9c-2 1.1-3.3 6.7-2.3 9.8 1.7 5.3 8.7 5.1 10.5-.3 2.3-7-2.7-12.8-8.2-9.5zm103.6-.3c-3.9 2.6-4.1 11.2-.3 13.3 5.1 2.7 9.7-2.1 8.4-8.8-.8-4.3-5-6.6-8.1-4.5zM179 395.5c0 3.1.3 3.5 2.5 3.5 1.8 0 2.6-.7 3.1-2.6.7-2.8-.7-4.4-3.8-4.4-1.4 0-1.8.8-1.8 3.5zm79-.5c0 2.8.3 3.1 2.8 2.8 2.1-.2 2.7-.8 2.7-2.8 0-2-.6-2.6-2.7-2.8-2.5-.3-2.8 0-2.8 2.8z"/></svg>