<svg data-name="Слой 1" xmlns="http://www.w3.org/2000/svg" viewBox="0 0 438 525"><path d="M214 255c34 0 64-12 88-36s36-54 36-87-12-64-36-88-54-36-88-36-63 12-87 36-36 54-36 88 12 63 36 87 53 36 87 36zM148 66c19-19 40-28 66-28s48 9 66 28 28 40 28 66-9 47-28 66-40 27-66 27-47-9-66-27-27-40-27-66 9-48 27-66z"/><path d="M430 402a304 304 0 0 0-4-32 254 254 0 0 0-8-33 161 161 0 0 0-13-30 115 115 0 0 0-21-27 89 89 0 0 0-29-18 100 100 0 0 0-37-7c-5 0-10 3-20 9l-20 13c-7 5-16 9-27 12a105 105 0 0 1-67 0c-11-3-20-7-27-12l-20-13c-10-6-15-9-20-9a100 100 0 0 0-37 7 89 89 0 0 0-29 18 114 114 0 0 0-20 27 161 161 0 0 0-14 30 256 256 0 0 0-8 33 303 303 0 0 0-4 32l-1 30c0 27 9 49 25 64 17 16 39 24 65 24h247c26 0 48-8 65-24 17-15 25-37 25-64l-1-30zm-45 73a61 61 0 0 1-44 15H94c-19 0-33-5-44-15s-16-24-16-43l1-28a274 274 0 0 1 4-29 225 225 0 0 1 7-29 131 131 0 0 1 11-24 85 85 0 0 1 14-20 59 59 0 0 1 20-12 69 69 0 0 1 23-4l6 3 21 14c9 5 21 11 34 15a135 135 0 0 0 85 0c14-5 25-10 34-15l21-14 6-3a69 69 0 0 1 24 4 59 59 0 0 1 19 12 85 85 0 0 1 15 19 130 130 0 0 1 10 25 224 224 0 0 1 7 29 275 275 0 0 1 4 29l1 28c0 19-5 33-16 43z"/></svg>